<?xml version="1.0" encoding="UTF-8"?>
<svg id="_レイヤー_1" data-name="レイヤー 1" xmlns="http://www.w3.org/2000/svg" viewBox="0 0 4096 4096">
  <defs>
    <style>
      .cls-1 {
        fill: #89c64e;
      }

      .cls-2 {
        fill: #111b36;
      }

      .cls-3 {
        fill: #4a9e47;
      }

      .cls-4 {
        fill: #c18423;
      }
    </style>
  </defs>
  <path class="cls-3" d="M1383.1426,1394.2141l-221.7026,128v1023.2004l443.405,16.8171v-1040.0176l-221.7024-128ZM1549.1694,1608.3911v162.3059l-55.4255,32.4424v-162.7317l55.366-32.4077.0596.0352v.356Z"/>
  <path class="cls-3" d="M496.0825,1903.4824l-221.7025,128v1039.873l443.405.1445v-1040.0176l-221.7025-128ZM662.3594,2130.4102v162.3059l-55.4255,32.4424v-162.7317l55.366-32.4077.0596.0352v.356Z"/>
  <path class="cls-3" d="M3600.168,1903.4824l-221.7026,128v1023.2004l443.405,16.8171v-1040.0176l-221.7024-128ZM3766.4448,2130.4102v162.3059l-55.4255,32.4424v-162.7317l55.366-32.4077.0596.0352v.356Z"/>
  <polyline class="cls-3" points="3378.4654 2811.5976 3378.4654 1771.58 3156.7629 1643.58 2935.0604 1771.58 2935.0604 2794.7805"/>
  <polyline class="cls-3" points="1161.1899 2811.5976 1161.1899 1771.58 939.4874 1643.58 717.7849 1771.58 717.7849 2794.7805"/>
  <polyline class="cls-3" points="2935.0605 2562.2317 2935.0605 1522.2141 2713.358 1394.2141 2491.6555 1522.2141 2491.6555 2545.4146"/>
  <polygon class="cls-2" points="1604.595 3839.9998 2048 4096 2491.405 3839.9998 2491.405 1024 2048 768 1604.595 1024 1604.595 3839.9998"/>
  <polygon class="cls-3" points="2713.3575 1152 2713.3575 384 2048.25 0 1383.1425 384 1383.1425 1152 2048.25 1536 2713.3575 1152"/>
  <polygon class="cls-1" points="2713.3575 384 2048.25 0 1383.1425 384 2048.25 768 2713.3575 384"/>
  <polygon class="cls-2" points="3711.019 2682.0034 3600.168 2746.8879 3600.168 2943.6445 3378.2151 2815.5 3378.2151 2561.7693 3156.5127 2432 2936.7617 2560.627 2935.0608 2559.6448 2935.0608 2435.8801 2824.2095 2370.9956 2717.001 2433.748 2048 2047.5 1382.8925 2431.5 1382.8925 2033.2517 1161.1899 1903.4824 939.4874 2033.2517 939.4874 2630.6284 828.6362 2565.7439 717.7849 2630.6284 717.7849 2815.5 496.3327 2943.3555 496.3327 2746.9824 385.4814 2682.0977 274.6302 2746.9824 274.6302 3071.3555 274.3799 3071.5 2048 4095.5 3821.6201 3071.5 3821.8704 3071.5 3821.8704 2746.8879 3711.019 2682.0034"/>
  <polygon class="cls-4" points="3322.9802 2708.3606 3267.6143 2740.7683 3267.6143 2903.5 3323.0398 2871.0576 3323.0398 2870.7017 3323.0398 2708.7517 3323.0398 2708.3958 3322.9802 2708.3606"/>
  <polygon class="cls-4" points="2324.7594 3175.4825 2269.3934 3207.8903 2269.3934 3370.622 2324.819 3338.1796 2324.819 3337.8236 2324.819 3175.8737 2324.819 3175.5177 2324.7594 3175.4825"/>
  <polygon class="cls-4" points="2491.3454 2610.7909 2435.9795 2643.1986 2435.9795 2805.9303 2491.405 2773.4879 2491.405 2773.132 2491.405 2611.182 2491.405 2610.826 2491.3454 2610.7909"/>
  <polygon class="cls-4" points="1383.6433 2610.7909 1439.0093 2643.1986 1439.0093 2805.9303 1383.5838 2773.4879 1383.5838 2773.132 1383.5838 2611.182 1383.5838 2610.826 1383.6433 2610.7909"/>
  <polygon class="cls-4" points="773.2701 2973.9303 828.636 3006.338 828.636 3169.0697 773.2105 3136.6273 773.2105 3136.2714 773.2105 2974.3214 773.2105 2973.9655 773.2701 2973.9303"/>
</svg>